<svg height="512" viewBox="0 0 64 64" width="512" xmlns="http://www.w3.org/2000/svg"><g id="Bottle-14" data-name="Bottle"><path d="m36 3h3a1 1 0 0 1 1 1v6a1 1 0 0 1 -1 1h-14a1 1 0 0 1 -1-1v-6a1 1 0 0 1 1-1z" fill="#bddbff"/><path d="m51 31v20h-38v-20zm-13 10a6 6 0 1 0 -6 6 6 6 0 0 0 6-6z" fill="#427bbf"/><g fill="black"><path d="m45.473 16.381-6.747-1.928a1 1 0 0 1 -.726-.962v-1.491h1a2 2 0 0 0 2-2v-6a2 2 0 0 0 -2-2h-14a2 2 0 0 0 -2 2v6a2 2 0 0 0 2 2h1v1.491a1 1 0 0 1 -.725.962l-6.748 1.928a9.037 9.037 0 0 0 -6.527 8.653v31.966a5.006 5.006 0 0 0 5 5h30a5.006 5.006 0 0 0 5-5v-31.966a9.037 9.037 0 0 0 -6.527-8.653zm-20.473-12.381h2v3h2v-3h2v3h2v-3h2v3h2v-3h2v6h-14zm-5.924 14.3 6.749-1.928a3.014 3.014 0 0 0 2.175-2.881v-1.491h8v1.491a3.014 3.014 0 0 0 2.176 2.885l6.748 1.924a7.029 7.029 0 0 1 5.076 6.734v4.966h-36v-4.966a7.029 7.029 0 0 1 5.076-6.734zm30.924 13.7v18h-36v-18zm-3 28h-30a3 3 0 0 1 -3-3v-5h36v5a3 3 0 0 1 -3 3z"/><path d="m32 48a7 7 0 1 0 -7-7 7.008 7.008 0 0 0 7 7zm0-12a5 5 0 1 1 -5 5 5.006 5.006 0 0 1 5-5z"/></g></g></svg>