<?xml version="1.0" encoding="iso-8859-1"?>
<!DOCTYPE svg PUBLIC "-//W3C//DTD SVG 1.1//EN" "http://www.w3.org/Graphics/SVG/1.1/DTD/svg11.dtd">
<svg version="1.1" id="Capa_1" xmlns="http://www.w3.org/2000/svg" xmlns:xlink="http://www.w3.org/1999/xlink" x="0px" y="0px"
	 width="792.002px" height="792.002px" viewBox="0 0 792.002 792.002" style="enable-background:new 0 0 792.002 792.002;"
	 xml:space="preserve">
<g>
	<g>
		<g>
			<path d="M396.007,792.002c-12.107,0-23.088-5.693-30.143-15.589l-196.04-276.168c-18.246-25.392-37.027-51.529-50.443-83.229
				c-7.749-18.271-13.69-37.499-17.656-57.158c-4.005-19.868-6.034-39.933-6.034-59.645c0-80.193,31.242-155.609,87.981-212.361
				c27.983-27.996,60.809-49.894,97.562-65.142c73.125-30.274,156.421-30.287,229.507,0c36.779,15.222,69.605,37.132,97.575,65.142
				c56.739,56.739,87.994,132.155,87.994,212.361c0,19.685-2.016,39.75-6.021,59.645c-4.031,19.738-9.974,38.965-17.67,57.171
				c-13.389,31.648-32.146,57.76-50.299,83.021c-2.068,2.854-3.913,5.406-8.73,12.199l-187.467,264.14
				C419.057,786.309,408.088,792.002,396.007,792.002z M396.007,26.061c-36.15,0-71.398,7.002-104.76,20.837
				c-33.559,13.9-63.532,33.926-89.081,59.461c-51.778,51.804-80.298,120.65-80.298,193.854c0,17.984,1.859,36.308,5.523,54.475
				c3.612,17.931,9.031,35.47,16.099,52.119c12.277,29.018,29.396,52.838,47.511,78.06l8.73,12.238L387.199,761.23
				c4.293,6.061,13.233,6.112,17.591-0.013l187.454-264.14c4.895-6.897,6.793-9.516,8.69-12.146
				c18.232-25.365,35.326-49.173,47.577-78.125c7.015-16.597,12.434-34.162,16.111-52.171c3.639-18.154,5.497-36.478,5.497-54.436
				c0-73.217-28.532-142.05-80.324-193.841c-25.535-25.549-55.495-45.561-89.094-59.461
				C467.354,33.063,432.132,26.061,396.007,26.061z M396.007,480.835c-99.617,0-180.661-81.031-180.661-180.635
				c0-99.604,81.044-180.622,180.661-180.622c99.578,0,180.609,81.031,180.609,180.635
				C576.616,399.817,495.599,480.835,396.007,480.835z M396.007,145.755c-85.18,0-154.484,69.291-154.484,154.458
				s69.304,154.458,154.484,154.458c85.154,0,154.432-69.291,154.432-154.458S481.161,145.755,396.007,145.755z"/>
		</g>
	</g>
</g>

</svg>
